<svg width="1024" height="1024" version="1.1" xmlns="http://www.w3.org/2000/svg" desc="Created with imagetracer.js version 1.2.6" ><path fill="rgb(0,0,0)" stroke="rgb(0,0,0)" stroke-width="1" opacity="0" d="M 0 0 L 1024 0 L 1024 1024 L 0 1024 L 0 0 Z M 237 336 L 236 337 L 226 337 L 219 339 L 214 339 L 185 348 Q 159 359 141 376 Q 118 396 103 425 L 92 453 L 87 481 L 87 514 L 88 515 L 89 530 L 94 550 Q 105 583 126 607 Q 145 629 172 644 L 202 657 L 222 662 L 239 663 L 240 664 L 266 664 L 267 663 L 282 662 Q 301 658 317 651 L 278 649 L 251 644 L 226 635 L 204 621 L 201 617 L 215 623 L 234 628 L 251 630 L 252 631 L 261 631 L 262 632 L 295 632 L 296 631 L 315 629 Q 343 623 364 608 Q 381 590 393 567 L 402 541 L 405 525 L 405 515 L 406 514 L 405 478 L 400 455 Q 389 419 368 395 Q 343 364 304 347 L 290 342 L 273 338 L 258 337 L 257 336 L 237 336 Z M 447 421 L 447 452 L 488 452 L 488 453 L 488 577 L 525 577 L 526 576 L 526 549 L 526 547 L 525 542 Q 528 535 526 525 L 526 523 L 525 519 L 526 514 L 525 509 L 526 508 L 526 493 L 526 491 Q 528 485 525 484 L 526 482 L 526 471 L 525 470 L 525 452 L 564 452 L 564 422 L 564 421 L 447 421 Z M 582 421 L 581 425 L 581 440 L 582 443 L 581 444 L 581 576 L 583 577 L 619 577 L 619 530 L 627 519 L 631 516 L 668 577 L 710 577 L 659 492 L 708 423 L 708 421 L 665 421 L 621 483 L 619 484 L 619 421 L 582 421 Z M 726 421 L 726 577 L 763 577 L 763 521 L 764 520 L 776 520 L 779 525 L 805 576 L 807 577 L 846 577 L 815 516 L 826 509 L 837 496 L 842 480 Q 844 455 834 442 Q 827 432 817 427 L 797 421 L 726 421 Z M 856 421 L 856 452 L 917 452 L 899 500 L 867 577 L 908 577 L 911 572 L 959 451 L 959 425 L 960 424 L 960 421 L 856 421 Z " /><path fill="rgb(0,0,0)" stroke="rgb(0,0,0)" stroke-width="1" opacity="0" d="M 234.5 376 L 258.5 376 L 283.5 381 Q 310.5 390 328 408.5 L 326.5 409 Q 312.8 400.2 294.5 396 L 277.5 394 L 276.5 393 L 254.5 393 L 237.5 396 L 223.5 401 Q 204.3 409.3 191 423.5 Q 175.2 439.7 168 464.5 L 168 469.5 L 166 476.5 L 166 502.5 Q 173.3 545.7 201.5 568 Q 217.9 582.1 241.5 589 L 258.5 592 L 284.5 592 L 288.5 591 L 288.5 592 L 279.5 595 L 262.5 598 L 239.5 598 L 218.5 594 L 190.5 582 Q 173.4 572.1 161 557.5 Q 146.4 541.1 139 517.5 L 135 496.5 L 135 476.5 L 139 454.5 L 145 438.5 Q 155.7 417.7 172.5 403 Q 184 393 198.5 386 L 214.5 380 L 234.5 376 Z " /><path fill="rgb(0,0,0)" stroke="rgb(0,0,0)" stroke-width="1" opacity="0" d="M 267.5 422 L 285.5 422 L 304.5 426 Q 325 433.5 338 448.5 Q 345.7 457.8 350 470.5 L 352 478.5 L 353 494.5 L 352 495.5 L 351 508.5 L 347 521.5 Q 339.7 539.2 327.5 552 L 327 550.5 Q 341.6 531.6 340 496.5 Q 335.2 468.3 316.5 454 Q 305.5 444.5 289.5 440 L 279.5 438 L 263.5 438 Q 229.3 443.8 212 466.5 L 208 474 L 206 473.5 L 216 453.5 L 227.5 440 Q 235.9 431.9 247.5 427 L 267.5 422 Z " /><path fill="rgb(0,0,0)" stroke="rgb(0,0,0)" stroke-width="1" opacity="0" d="M 763 452 L 790.5 453 L 799 458.5 Q 804.2 463.8 803 475.5 Q 801.8 482.3 797.5 486 L 792.5 489 L 784.5 491 L 763 491 L 763 452 Z " /><path fill="rgb(24,30,36)" stroke="rgb(24,30,36)" stroke-width="1" opacity="0.9882352941176471" d="M 236.5 336 L 256.5 336 L 257.5 337 L 272.5 338 L 289.5 342 L 303.5 347 Q 342.7 363.8 368 394.5 Q 389.3 419.2 400 454.5 L 405 477.5 L 406 513.5 L 405 514.5 L 405 524.5 L 402 540.5 L 393 566.5 Q 381.3 590.3 363.5 608 Q 343.2 622.7 314.5 629 L 295.5 631 L 294.5 632 L 261.5 632 L 260.5 631 L 251.5 631 L 250.5 630 L 233.5 628 L 214.5 623 L 201.5 618 L 203.5 621 L 225.5 635 L 250.5 644 L 277.5 649 L 317 650.5 Q 301.3 658.3 281.5 662 L 266.5 663 L 265.5 664 L 239.5 664 L 238.5 663 L 221.5 662 L 201.5 657 L 171.5 644 Q 145.3 628.7 126 606.5 Q 104.9 583.1 94 549.5 L 89 529.5 L 88 514.5 L 87 513.5 L 87 480.5 L 92 452.5 L 103 424.5 Q 118 396.5 140.5 376 Q 159.3 358.8 184.5 348 L 213.5 339 L 218.5 339 L 225.5 337 L 235.5 337 L 236.5 336 Z M 235 376 L 215 380 L 199 386 Q 184 393 173 403 Q 156 418 145 439 L 139 455 L 135 477 L 135 497 L 139 518 Q 146 541 161 558 Q 173 572 191 582 L 219 594 L 240 598 L 263 598 L 280 595 L 289 592 L 289 591 L 285 592 L 259 592 L 242 589 Q 218 582 202 568 Q 173 546 166 503 L 166 477 L 168 470 L 168 465 Q 175 440 191 424 Q 204 409 224 401 L 238 396 L 255 393 L 277 393 L 278 394 L 295 396 Q 313 400 327 409 L 328 409 Q 310 390 284 381 L 259 376 L 235 376 Z M 268 422 L 248 427 Q 236 432 228 440 L 216 454 L 206 474 L 208 474 L 212 467 Q 229 444 264 438 L 280 438 L 290 440 Q 305 445 317 454 Q 335 468 340 497 Q 342 532 327 551 L 328 552 Q 340 539 347 522 L 351 509 L 352 496 L 353 495 L 352 479 L 350 471 Q 346 458 338 449 Q 325 433 305 426 L 286 422 L 268 422 Z " /><path fill="rgb(24,30,36)" stroke="rgb(24,30,36)" stroke-width="1" opacity="0.9882352941176471" d="M 447 421 L 563.5 421 L 564 421.5 L 564 452 L 525 452 L 525 469.5 L 526 470.5 L 526 481.5 L 525 483.5 Q 527.5 485 526 490.5 L 526 492.5 L 526 507.5 L 525 508.5 L 526 513.5 L 525 518.5 L 526 522.5 L 526 524.5 Q 527.8 535.3 525 541.5 L 526 546.5 L 526 548.5 L 526 575.5 L 524.5 577 L 488 577 L 488 452.5 L 487.5 452 L 447 452 L 447 421 Z " /><path fill="rgb(24,30,36)" stroke="rgb(24,30,36)" stroke-width="1" opacity="0.9882352941176471" d="M 582 421 L 619 421 L 619 483.5 L 621 482.5 L 664.5 421 L 707.5 421 L 708 422.5 L 659 491.5 L 710 576.5 L 667.5 577 L 631 516 L 627 518.5 L 619 529.5 L 619 577 L 582.5 577 L 581 575.5 L 581 443.5 L 582 442.5 L 581 439.5 L 581 424.5 L 582 421 Z " /><path fill="rgb(24,30,36)" stroke="rgb(24,30,36)" stroke-width="1" opacity="0.9882352941176471" d="M 726 421 L 796.5 421 L 816.5 427 Q 827.1 432.4 834 441.5 Q 844 454.5 842 479.5 L 837 495.5 L 825.5 509 L 815 515.5 L 846 577 L 806.5 577 L 805 575.5 L 779 524.5 L 775.5 520 L 763.5 520 L 763 520.5 L 763 577 L 726 577 L 726 421 Z M 763 452 L 763 491 L 785 491 L 793 489 L 798 486 Q 802 482 803 476 Q 804 464 799 459 L 791 453 L 763 452 Z " /><path fill="rgb(24,30,36)" stroke="rgb(24,30,36)" stroke-width="1" opacity="0.9882352941176471" d="M 856 421 L 959.5 421 L 960 423.5 L 959 424.5 L 959 450.5 L 911 571.5 L 907.5 577 L 867 576.5 L 899 499.5 L 917 452 L 856 452 L 856 421 Z " /></svg>